# xmcd CD database file
#
# Track frame offsets:
#	150
#	14282
#	30309
#	41762
#	57498
#	75045
#	99987
#	115093
#	122751
#	132236
#	147392
#	165878
#	190632
#	214753
#	238526
#	251758
#	281257
#
# Disc length: 3918 seconds
#
# Revision: 0
# Processed by: cddbd v1.5.2PL0 Copyright (c) Steve Scherf et al.
# Submitted via: CDex 1.70beta2
#
DISCID=d60f4c11
DTITLE=Tony Joe White - Swamp Music - Disc 4
DYEAR=2006
DGENRE=Country
TTITLE0=Mississippi Delta
TTITLE1=Chain Of Fools
TTITLE2=Woodpecker
TTITLE3=The Ballad Of Hollis Brown
TTITLE4=Blue Monday
TTITLE5=Tabacco Road/Dead End Street
TTITLE6=Caress Me Babe!
TTITLE7=Dusty Marshmallow
TTITLE8=Just Look At You
TTITLE9=Skinny Legs and All
TTITLE10=Boom Boom
TTITLE11=Roosevelt And Ira Lee (Night Of The Mossacin) 
TTITLE12=I Want You
TTITLE13=Groupy Girl
TTITLE14=Stud Spider
TTITLE15=Polk Salad Annie
TTITLE16=Save Your Surgar For Me
EXTD=YEAR: 2006
EXTT0=
EXTT1=
EXTT2=
EXTT3=
EXTT4=
EXTT5=
EXTT6=
EXTT7=
EXTT8=
EXTT9=
EXTT10=
EXTT11=
EXTT12=
EXTT13=
EXTT14=
EXTT15=
EXTT16=
PLAYORDER=
